<?xml version="1.0" encoding="UTF-8" standalone="no"?>
<!-- Created with Inkscape (http://www.inkscape.org/) -->

<svg
   width="209.04776"
   height="19.249739"
   viewBox="0 0 55.310553 5.09316"
   version="1.1"
   id="svg5"
   xml:space="preserve"
   xmlns="http://www.w3.org/2000/svg"
   xmlns:svg="http://www.w3.org/2000/svg"><defs
     id="defs2" /><g
     id="layer1"
     transform="translate(-1.1239627,-148.597)"><path
       id="path2914"
       style="color:#000000;fill:#ff5599;stroke-width:0.529167;stroke-linecap:round;stroke-dasharray:none;fill-opacity:1"
       d="M 8.23619 148.597 C 6.8328714 148.597 5.6890587 149.73872 5.6890587 151.14258 L 5.6890587 151.14361 L 5.6885419 151.14361 L 5.6885419 151.14465 C 5.6885419 152.26241 4.7884319 153.16106 3.671094 153.16106 C 2.5537552 153.16106 1.6536461 152.26241 1.6536461 151.14465 L 1.6536461 151.14361 L 1.1239627 151.14361 L 1.1239627 151.14465 C 1.1239627 152.54851 2.2677733 153.69023 3.671094 153.69023 C 5.0744136 153.69023 6.2182254 152.54851 6.2182254 151.14465 L 6.2182254 151.14361 L 6.2187421 151.14361 L 6.2187421 151.14258 C 6.2187421 150.02482 7.1188512 149.12617 8.23619 149.12617 C 9.3535289 149.12617 10.253638 150.02482 10.253638 151.14258 L 10.253638 151.14361 L 10.254155 151.14361 L 10.254155 151.14465 C 10.254155 152.54851 11.397965 153.69023 12.801286 153.69023 C 14.204606 153.69023 15.348417 152.54851 15.348417 151.14465 L 15.348417 151.14361 L 15.348934 151.14361 L 15.348934 151.14258 C 15.348934 150.02482 16.249043 149.12617 17.366382 149.12617 C 18.483721 149.12617 19.38383 150.02482 19.38383 151.14258 L 19.38383 151.14361 L 19.384347 151.14361 L 19.384347 151.14465 C 19.384347 152.54851 20.528157 153.69023 21.931478 153.69023 C 23.334798 153.69023 24.478609 152.54851 24.478609 151.14465 L 24.478609 151.14361 L 24.479126 151.14361 L 24.479126 151.14258 C 24.479126 150.02482 25.379235 149.12617 26.496574 149.12617 C 27.613913 149.12617 28.514022 150.02482 28.514022 151.14258 L 28.514022 151.14361 L 28.514539 151.14361 L 28.514539 151.14465 C 28.514539 152.54851 29.658349 153.69023 31.06167 153.69023 C 32.46499 153.69023 33.608801 152.54851 33.608801 151.14465 L 33.608801 151.14361 L 33.609318 151.14361 L 33.609318 151.14258 C 33.609318 150.02482 34.509427 149.12617 35.626766 149.12617 C 36.744105 149.12617 37.644214 150.02482 37.644214 151.14258 L 37.644214 151.14361 L 37.644731 151.14361 L 37.644731 151.14465 C 37.644731 152.54851 38.788542 153.69023 40.191862 153.69023 C 41.595182 153.69023 42.738993 152.54851 42.738993 151.14465 L 42.738993 151.14361 L 42.73951 151.14361 L 42.73951 151.14258 C 42.73951 150.02482 43.639619 149.12617 44.756958 149.12617 C 45.874297 149.12617 46.774406 150.02482 46.774406 151.14258 L 46.774406 151.14361 L 46.774923 151.14361 L 46.774923 151.14465 C 46.774923 152.54851 47.918734 153.69023 49.322054 153.69023 C 50.725374 153.69023 51.869185 152.54851 51.869185 151.14465 L 51.869185 151.14361 L 51.869702 151.14361 L 51.869702 151.14258 C 51.869702 150.02482 52.769811 149.12617 53.88715 149.12617 C 55.004489 149.12617 55.904598 150.02482 55.904598 151.14258 L 55.904598 151.14361 L 56.434281 151.14361 L 56.434281 151.14258 C 56.434281 149.73872 55.290469 148.597 53.88715 148.597 C 52.483832 148.597 51.340019 149.73872 51.340019 151.14258 L 51.340019 151.14361 L 51.339502 151.14361 L 51.339502 151.14465 C 51.339502 152.26241 50.439392 153.16106 49.322054 153.16106 C 48.204715 153.16106 47.304606 152.26241 47.304606 151.14465 L 47.304606 151.14361 L 47.304089 151.14361 L 47.304089 151.14258 C 47.304089 149.73872 46.160277 148.597 44.756958 148.597 C 43.35364 148.597 42.209827 149.73872 42.209827 151.14258 L 42.209827 151.14361 L 42.20931 151.14361 L 42.20931 151.14465 C 42.20931 152.26241 41.3092 153.16106 40.191862 153.16106 C 39.074523 153.16106 38.174414 152.26241 38.174414 151.14465 L 38.174414 151.14361 L 38.173897 151.14361 L 38.173897 151.14258 C 38.173897 149.73872 37.030085 148.597 35.626766 148.597 C 34.223447 148.597 33.079635 149.73872 33.079635 151.14258 L 33.079635 151.14361 L 33.079118 151.14361 L 33.079118 151.14465 C 33.079118 152.26241 32.179008 153.16106 31.06167 153.16106 C 29.944331 153.16106 29.044222 152.26241 29.044222 151.14465 L 29.044222 151.14361 L 29.043705 151.14361 L 29.043705 151.14258 C 29.043705 149.73872 27.899893 148.597 26.496574 148.597 C 25.093255 148.597 23.949443 149.73872 23.949443 151.14258 L 23.949443 151.14361 L 23.948926 151.14361 L 23.948926 151.14465 C 23.948926 152.26241 23.048816 153.16106 21.931478 153.16106 C 20.814139 153.16106 19.91403 152.26241 19.91403 151.14465 L 19.91403 151.14361 L 19.913513 151.14361 L 19.913513 151.14258 C 19.913513 149.73872 18.769701 148.597 17.366382 148.597 C 15.963063 148.597 14.819251 149.73872 14.819251 151.14258 L 14.819251 151.14361 L 14.818734 151.14361 L 14.818734 151.14465 C 14.818734 152.26241 13.918624 153.16106 12.801286 153.16106 C 11.683947 153.16106 10.783838 152.26241 10.783838 151.14465 L 10.783838 151.14361 L 10.783321 151.14361 L 10.783321 151.14258 C 10.783321 149.73872 9.6395086 148.597 8.23619 148.597 z " /></g></svg>
