<?xml version="1.0" encoding="UTF-8" standalone="no"?>
<!-- Created with Inkscape (http://www.inkscape.org/) -->

<svg
   id="svg867"
   version="1.1"
   viewBox="0 0 11.740885 3.3683244"
   height="12.730676"
   width="44.375"
   xmlns="http://www.w3.org/2000/svg"
   xmlns:svg="http://www.w3.org/2000/svg">
  <defs
     id="defs864" />
  <path
     id="rect9313"
     style="fill:#e3dbdb;stroke-width:0.441374;stroke-linecap:round;stroke:none"
     d="M 0,0.3669572 H 11.740885 V 2.8143533 H 0 Z" />
  <path
     id="path9484"
     style="fill:#241c1c;stroke-width:0.396875;stroke-linecap:round;stroke:none"
     d="M 1.6081708,3.0127906 A 0.35553384,0.35553384 0 0 1 1.2526369,3.3683244 0.35553384,0.35553384 0 0 1 0.8971031,3.0127906 0.35553384,0.35553384 0 0 1 1.2526369,2.6572568 0.35553384,0.35553384 0 0 1 1.6081708,3.0127906 Z" />
  <path
     id="path9484-5"
     style="fill:#241c1c;stroke-width:0.396875;stroke-linecap:round;stroke:none"
     d="M 2.9275438,3.0127906 A 0.35553384,0.35553384 0 0 1 2.5720099,3.3683244 0.35553384,0.35553384 0 0 1 2.2164761,3.0127906 0.35553384,0.35553384 0 0 1 2.5720099,2.6572568 0.35553384,0.35553384 0 0 1 2.9275438,3.0127906 Z" />
  <path
     id="path9484-4"
     style="fill:#241c1c;stroke-width:0.396875;stroke-linecap:round;stroke:none"
     d="M 4.2469168,3.0127906 A 0.35553384,0.35553384 0 0 1 3.891383,3.3683244 0.35553384,0.35553384 0 0 1 3.5358491,3.0127906 0.35553384,0.35553384 0 0 1 3.891383,2.6572568 0.35553384,0.35553384 0 0 1 4.2469168,3.0127906 Z" />
  <path
     id="path9484-9"
     style="fill:#241c1c;stroke-width:0.396875;stroke-linecap:round;stroke:none"
     d="M 5.5662898,3.0127906 A 0.35553384,0.35553384 0 0 1 5.210756,3.3683244 0.35553384,0.35553384 0 0 1 4.8552221,3.0127906 0.35553384,0.35553384 0 0 1 5.210756,2.6572568 0.35553384,0.35553384 0 0 1 5.5662898,3.0127906 Z" />
  <path
     id="path9484-3"
     style="fill:#241c1c;stroke-width:0.396875;stroke-linecap:round;stroke:none"
     d="M 6.8856628,3.0127906 A 0.35553384,0.35553384 0 0 1 6.530129,3.3683244 0.35553384,0.35553384 0 0 1 6.1745952,3.0127906 0.35553384,0.35553384 0 0 1 6.530129,2.6572568 0.35553384,0.35553384 0 0 1 6.8856628,3.0127906 Z" />
  <path
     id="path9484-36"
     style="fill:#241c1c;stroke-width:0.396875;stroke-linecap:round;stroke:none"
     d="M 8.2050359,3.0127906 A 0.35553384,0.35553384 0 0 1 7.8495019,3.3683244 0.35553384,0.35553384 0 0 1 7.493968,3.0127906 0.35553384,0.35553384 0 0 1 7.8495019,2.6572568 0.35553384,0.35553384 0 0 1 8.2050359,3.0127906 Z" />
  <path
     id="path9484-35"
     style="fill:#241c1c;stroke-width:0.396875;stroke-linecap:round;stroke:none"
     d="M 9.524409,3.0127906 A 0.35553384,0.35553384 0 0 1 9.168875,3.3683244 0.35553384,0.35553384 0 0 1 8.813341,3.0127906 0.35553384,0.35553384 0 0 1 9.168875,2.6572568 0.35553384,0.35553384 0 0 1 9.524409,3.0127906 Z" />
  <path
     id="path9484-2"
     style="fill:#241c1c;stroke-width:0.396875;stroke-linecap:round;stroke:none"
     d="M 10.843782,3.0127906 A 0.35553384,0.35553384 0 0 1 10.488248,3.3683244 0.35553384,0.35553384 0 0 1 10.132714,3.0127906 0.35553384,0.35553384 0 0 1 10.488248,2.6572568 0.35553384,0.35553384 0 0 1 10.843782,3.0127906 Z" />
  <path
     id="path509"
     style="fill:#241c1c;stroke-width:0.0249823;stroke-linecap:round;stroke:none"
     d="M 1.7119737,6.02e-5 C 2.022129,6.03e-5 3.059956,1.7976296 2.9048784,2.0662321 2.7498008,2.3348344 0.67414638,2.3348344 0.51906878,2.0662319 0.36399118,1.7976296 1.4018185,6.02e-5 1.7119737,6.02e-5 Z" />
  <path
     id="rect619"
     style="fill:#2b1100;stroke-width:0.0933085;stroke-linecap:round;stroke:none"
     d="m 3.9811122,0.1796951 c 0.1977258,-0.1050144 0.4587017,0.00211 0.5851477,0.240187 l 0.557065,1.0488661 C 5.2497709,1.7068262 5.1923868,1.9830343 4.994661,2.0880488 4.7969352,2.1930632 4.5359593,2.0859399 4.4095133,1.8478618 L 3.8524483,0.7989957 C 3.7260023,0.5609177 3.7833864,0.2847096 3.9811122,0.1796951 Z" />
  <path
     id="rect619-6"
     style="fill:#241c1c;stroke-width:0.0927278;stroke-linecap:round;stroke:none"
     d="m 6.7601791,0.1856326 c 0.1964954,-0.104361 0.4558473,0.0021 0.5815064,0.2386923 l 0.5535984,1.0423392 c 0.1256588,0.2365968 0.06863,0.5110856 -0.127863,0.6154466 -0.196496,0.104361 -0.4558473,-0.0021 -0.5815066,-0.2386921 L 6.6323158,0.8010793 C 6.5066567,0.5644828 6.5636837,0.2899936 6.7601791,0.1856326 Z" />
  <path
     style="color:#000000;fill:#241c1c;stroke-linecap:round;-inkscape-stroke:none;stroke:none"
     d="m 1.6621094,-1.1484375 c -0.2779258,0 -0.553617,0.017208 -0.78515627,0.052734 -0.11576965,0.017763 -0.21971443,0.038401 -0.31640626,0.072266 -0.0966918,0.0338641 -0.20431804,0.0598664 -0.29492187,0.21679687 -0.0906038,0.15693045 -0.0580813,0.26261165 -0.0390625,0.36328125 0.0190188,0.10066961 0.0512485,0.20140584 0.09375,0.31054688 0.0850029,0.21828207 0.20869336,0.46634048 0.34765625,0.70703125 0.13896289,0.24069077 0.29096363,0.47154115 0.43749995,0.65429685 0.073268,0.091378 0.1449832,0.1714757 0.2226563,0.2382813 0.077673,0.066805 0.1527767,0.1464844 0.3339844,0.1464843 0.1812076,0 0.2582644,-0.079679 0.3359375,-0.1464843 C 2.0757199,1.3999913 2.1454818,1.3198935 2.21875,1.2285156 2.3652864,1.0457599 2.5172871,0.81490953 2.65625,0.57421875 2.7952129,0.33352797 2.9208565,0.08546958 3.0058594,-0.1328125 c 0.042501,-0.10914104 0.074731,-0.20987727 0.09375,-0.31054688 0.019019,-0.1006696 0.049588,-0.2063508 -0.041016,-0.36328125 C 2.9679899,-0.96357107 2.8623168,-0.98957344 2.765625,-1.0234375 2.6689332,-1.0573016 2.5649884,-1.07794 2.4492188,-1.0957031 2.2176795,-1.1312295 1.9400351,-1.1484375 1.6621094,-1.1484375 Z m 0,0.59765625 c 0.2539535,-1e-8 0.5094545,0.0164047 0.6953125,0.0449219 0.057671,0.008849 0.090632,0.0192937 0.1308594,0.0292969 -0.011446,0.0397504 -0.017983,0.0728218 -0.039063,0.12695312 C 2.3809864,-0.17439301 2.2656487,0.05546037 2.1386719,0.27539063 2.0116951,0.49532088 1.8715319,0.7087696 1.7539062,0.85546875 1.7169564,0.9015515 1.6910955,0.92510604 1.6621094,0.95507813 1.6331848,0.92514546 1.6090817,0.90138459 1.5722656,0.85546875 1.45464,0.70876961 1.3125237,0.49532087 1.1855469,0.27539063 1.0585701,0.05546038 0.9451855,-0.17439301 0.87695313,-0.34960938 c -0.0210797,-0.0541313 -0.0276168,-0.0872027 -0.0390625,-0.12695312 0.0401278,-0.009953 0.0715492,-0.0204963 0.12890625,-0.0292969 0.18585802,-0.0285172 0.44135892,-0.0449219 0.69531252,-0.0449219 z"
     id="path481"
     transform="matrix(0.82165545,0,0,0.82165545,8.6735022,0.94294933)" />
</svg>
