<?xml version="1.0" encoding="UTF-8" standalone="no"?>
<!-- Created with Inkscape (http://www.inkscape.org/) -->

<svg
   width="48"
   height="48"
   viewBox="0 0 12.7 12.700001"
   version="1.1"
   id="svg5"
   xml:space="preserve"
   xmlns="http://www.w3.org/2000/svg"
   xmlns:svg="http://www.w3.org/2000/svg"><defs
     id="defs2" /><path
     style="color:#000000;fill:#202020;stroke-linecap:round;-inkscape-stroke:none;stroke:none;fill-opacity:1"
     d="m 4.9082031,4.6445312 a 0.2645835,0.2645835 0 0 0 -0.1855469,0.078125 0.2645835,0.2645835 0 0 0 0,0.3730469 l 2.8808594,2.8828125 a 0.2645835,0.2645835 0 0 0 0.375,0 0.2645835,0.2645835 0 0 0 0,-0.375 L 5.0957031,4.7226562 a 0.2645835,0.2645835 0 0 0 -0.1875,-0.078125 z"
     id="path1079-3" /><path
     style="color:#000000;fill:#202020;stroke-linecap:round;-inkscape-stroke:none;stroke:none;fill-opacity:1"
     d="M 7.6035156,4.7226562 4.7226562,7.6035156 a 0.2645835,0.2645835 0 0 0 0,0.375 0.2645835,0.2645835 0 0 0 0.3730469,0 L 7.9785156,5.0957031 a 0.2645835,0.2645835 0 0 0 0,-0.3730469 0.2645835,0.2645835 0 0 0 -0.375,0 z"
     id="path1079-34" /></svg>
