<?xml version="1.0" encoding="UTF-8" standalone="no"?>
<!-- Created with Inkscape (http://www.inkscape.org/) -->

<svg
   width="48"
   height="48"
   viewBox="0 0 12.7 12.700001"
   version="1.1"
   id="svg5"
   xml:space="preserve"
   xmlns="http://www.w3.org/2000/svg"
   xmlns:svg="http://www.w3.org/2000/svg"><defs
     id="defs2" /><path
     style="color:#000000;fill:#ffffff;stroke-linecap:round;stroke:none;fill-opacity:1"
     d="M 4.3125,4.2324219 A 0.2645835,0.2645835 0 0 0 4.046875,4.4980469 0.2645835,0.2645835 0 0 0 4.3125,4.7617187 H 8.3886719 A 0.2645835,0.2645835 0 0 0 8.6523438,4.4980469 0.2645835,0.2645835 0 0 0 8.3886719,4.2324219 Z"
     id="path1079" /><path
     style="color:#000000;fill:#ffffff;stroke-linecap:round;stroke:none;fill-opacity:1"
     d="M 4.3125,6.0859375 A 0.2645835,0.2645835 0 0 0 4.046875,6.3496094 0.2645835,0.2645835 0 0 0 4.3125,6.6152344 H 8.3886719 A 0.2645835,0.2645835 0 0 0 8.6523438,6.3496094 0.2645835,0.2645835 0 0 0 8.3886719,6.0859375 Z"
     id="path1079-3" /><path
     style="color:#000000;fill:#ffffff;stroke-linecap:round;-inkscape-stroke:none;stroke:none;fill-opacity:1"
     d="M 4.3125,7.9375 A 0.2645835,0.2645835 0 0 0 4.046875,8.2011719 0.2645835,0.2645835 0 0 0 4.3125,8.4667969 H 8.3886719 A 0.2645835,0.2645835 0 0 0 8.6523438,8.2011719 0.2645835,0.2645835 0 0 0 8.3886719,7.9375 Z"
     id="path1079-34" /></svg>
